<svg width="162" height="79" viewBox="0 0 162 79" fill="none" xmlns="http://www.w3.org/2000/svg">
<path d="M55.5216 30C56.5787 30.0189 57.5037 30.2643 58.2966 30.7362C59.0894 31.2081 59.6935 31.8405 60.1088 32.6334C60.543 33.4262 60.7601 34.3229 60.7601 35.3234C60.7601 36.0596 60.6185 36.7581 60.3353 37.4188C60.071 38.0606 59.7029 38.6364 59.231 39.1461C59.9106 39.6557 60.4391 40.2881 60.8167 41.0432C61.2131 41.7983 61.4113 42.6289 61.4113 43.535C61.4113 44.4978 61.1754 45.385 60.7034 46.1967C60.2315 47.0084 59.5991 47.6597 58.8063 48.1505C58.0134 48.6225 57.1356 48.8584 56.1729 48.8584H50V30H55.5216ZM52.4918 32.5484V38.155H55.5216C56.2956 38.155 56.9468 37.8813 57.4754 37.3338C58.004 36.7864 58.2683 36.1162 58.2683 35.3234C58.2683 34.5306 58.004 33.8698 57.4754 33.3413C56.9657 32.8127 56.3145 32.5484 55.5216 32.5484H52.4918ZM52.4918 40.7034V46.31H56.1729C56.9468 46.31 57.5981 46.0457 58.1267 45.5171C58.6552 44.9697 58.9195 44.309 58.9195 43.535C58.9195 42.7422 58.6552 42.072 58.1267 41.5246C57.5981 40.9771 56.9468 40.7034 56.1729 40.7034H52.4918Z" fill="#0065FC"/>
<path d="M70.8452 49C69.8824 49 68.9669 48.8112 68.0985 48.4337C67.2302 48.0561 66.4656 47.537 65.8049 46.8763C65.1442 46.2156 64.6251 45.4511 64.2476 44.5827C63.87 43.7144 63.6812 42.7988 63.6812 41.8361C63.6812 40.8544 63.87 39.92 64.2476 39.0328C64.6251 38.1456 65.1442 37.3716 65.8049 36.7109C66.4656 36.0502 67.2302 35.5405 68.0985 35.1818C68.9669 34.8043 69.8824 34.6155 70.8452 34.6155C71.8268 34.6155 72.7612 34.8043 73.6485 35.1818C74.5357 35.5405 75.3097 36.0502 75.9704 36.7109C76.6311 37.3716 77.1408 38.1456 77.4994 39.0328C77.877 39.92 78.0657 40.8544 78.0657 41.8361C78.0657 42.7988 77.877 43.7144 77.4994 44.5827C77.1408 45.4511 76.6311 46.2156 75.9704 46.8763C75.3097 47.537 74.5357 48.0561 73.6485 48.4337C72.7612 48.8112 71.8268 49 70.8452 49ZM70.8452 37.1356C69.5804 37.1356 68.495 37.5887 67.5888 38.4948C67.1547 38.929 66.8149 39.4386 66.5695 40.0238C66.3241 40.609 66.2014 41.2131 66.2014 41.8361C66.2014 42.459 66.3241 43.0537 66.5695 43.62C66.8149 44.1863 67.1547 44.6865 67.5888 45.1207C68.023 45.5549 68.5138 45.8947 69.0613 46.1401C69.6276 46.3855 70.2222 46.5082 70.8452 46.5082C71.4681 46.5082 72.0722 46.3855 72.6574 46.1401C73.2426 45.8947 73.7428 45.5549 74.1581 45.1207C74.5734 44.6865 74.9038 44.1863 75.1492 43.62C75.3946 43.0537 75.5173 42.459 75.5173 41.8361C75.5173 41.2131 75.3946 40.609 75.1492 40.0238C74.9038 39.4386 74.5734 38.929 74.1581 38.4948C73.7428 38.0606 73.2426 37.7303 72.6574 37.5037C72.0911 37.2583 71.487 37.1356 70.8452 37.1356Z" fill="#0065FC"/>
<path d="M86.9388 49C85.9761 49 85.0605 48.8112 84.1922 48.4337C83.3238 48.0561 82.5593 47.537 81.8986 46.8763C81.2379 46.2156 80.7187 45.4511 80.3412 44.5827C79.9636 43.7144 79.7749 42.7988 79.7749 41.8361C79.7749 40.8544 79.9636 39.92 80.3412 39.0328C80.7187 38.1456 81.2379 37.3716 81.8986 36.7109C82.5593 36.0502 83.3238 35.5405 84.1922 35.1818C85.0605 34.8043 85.9761 34.6155 86.9388 34.6155C87.9204 34.6155 88.8549 34.8043 89.7421 35.1818C90.6293 35.5405 91.4033 36.0502 92.064 36.7109C92.7247 37.3716 93.2344 38.1456 93.5931 39.0328C93.9706 39.92 94.1594 40.8544 94.1594 41.8361C94.1594 42.7988 93.9706 43.7144 93.5931 44.5827C93.2344 45.4511 92.7247 46.2156 92.064 46.8763C91.4033 47.537 90.6293 48.0561 89.7421 48.4337C88.8549 48.8112 87.9204 49 86.9388 49ZM86.9388 37.1356C85.674 37.1356 84.5886 37.5887 83.6825 38.4948C83.2483 38.929 82.9085 39.4386 82.6631 40.0238C82.4177 40.609 82.295 41.2131 82.295 41.8361C82.295 42.459 82.4177 43.0537 82.6631 43.62C82.9085 44.1863 83.2483 44.6865 83.6825 45.1207C84.1167 45.5549 84.6075 45.8947 85.1549 46.1401C85.7212 46.3855 86.3159 46.5082 86.9388 46.5082C87.5618 46.5082 88.1658 46.3855 88.751 46.1401C89.3362 45.8947 89.8365 45.5549 90.2518 45.1207C90.6671 44.6865 90.9974 44.1863 91.2428 43.62C91.4882 43.0537 91.6109 42.459 91.6109 41.8361C91.6109 41.2131 91.4882 40.609 91.2428 40.0238C90.9974 39.4386 90.6671 38.929 90.2518 38.4948C89.8365 38.0606 89.3362 37.7303 88.751 37.5037C88.1847 37.2583 87.5806 37.1356 86.9388 37.1356Z" fill="#0065FC"/>
<path d="M103.501 48.8584L99.1965 43.62V48.8584H96.7047V30.0283H99.1965V38.155L103.047 34.5306H106.757L100.046 40.7601L106.785 48.8584H103.501Z" fill="#0065FC"/>
<path d="M109.787 32.6617C109.428 32.6617 109.117 32.539 108.853 32.2936C108.607 32.0293 108.485 31.7178 108.485 31.3592C108.485 31.0005 108.607 30.6985 108.853 30.4531C109.117 30.1888 109.428 30.0566 109.787 30.0566C110.146 30.0566 110.448 30.1888 110.693 30.4531C110.958 30.6985 111.09 31.0005 111.09 31.3592C111.09 31.7178 110.958 32.0293 110.693 32.2936C110.448 32.539 110.146 32.6617 109.787 32.6617ZM108.626 48.8584V34.7004H111.005V48.8584H108.626Z" fill="#0065FC"/>
<path d="M88.4338 40.0097C88.4338 40.8094 87.7855 41.4577 86.9858 41.4577C86.1861 41.4577 85.5378 40.8094 85.5378 40.0097C85.5378 39.21 86.1861 38.5617 86.9858 38.5617C87.7855 38.5617 88.4338 39.21 88.4338 40.0097Z" fill="#0065FC"/>
<path d="M85.5378 44.6754L86.2369 39.527H87.8346L88.4338 44.6754H85.5378Z" fill="#0065FC"/>
</svg>
